<svg width="811" height="384" viewBox="0 0 811 384" fill="none" xmlns="http://www.w3.org/2000/svg">
<path d="M401.578 6.95827H66.1875C50.7865 6.95827 35.3646 6.69264 19.9583 6.95827H19.3177C18.1406 6.9791 16.9844 7.1041 15.8333 7.34889C14.6875 7.58847 13.5729 7.93743 12.4896 8.39056C11.4115 8.84889 10.3854 9.40618 9.41146 10.0572C8.4375 10.7135 7.53646 11.4583 6.70833 12.2864C5.875 13.1145 5.13542 14.0156 4.47917 14.9895C3.82292 15.9635 3.26563 16.9895 2.8125 18.0676C2.35417 19.151 2.00521 20.2656 1.76042 21.4114C1.52083 22.5572 1.39063 23.7187 1.375 24.8906V94.1822C1.39063 95.3541 1.52083 96.5156 1.76563 97.6614C2.00521 98.8124 2.35417 99.927 2.8125 101.005C3.27083 102.083 3.82813 103.109 4.47917 104.083C5.13542 105.057 5.88021 105.958 6.70833 106.786C7.53646 107.615 8.4375 108.359 9.41146 109.016C10.3854 109.667 11.4115 110.224 12.4948 110.682C13.5729 111.135 14.6875 111.484 15.8333 111.729C16.9844 111.969 18.1406 112.099 19.3177 112.115L82.6667 112.328L183.771 112.677L207.094 112.75L189.167 94.8176V279.776C189.167 288.344 188.979 296.937 189.167 305.51V305.885C189.167 315.26 197.438 324.271 207.094 323.818C216.755 323.37 225.036 315.943 225.036 305.885V120.927C225.036 112.354 225.219 103.76 225.036 95.1926C225.036 95.0676 225.036 94.9478 225.036 94.8176C225.021 93.6458 224.891 92.4843 224.651 91.3333C224.406 90.1874 224.057 89.0729 223.604 87.9947C223.146 86.9114 222.589 85.8854 221.932 84.9114C221.276 83.9426 220.536 83.0416 219.703 82.2083C218.875 81.3801 217.974 80.6406 217 79.9843C216.026 79.3281 215 78.776 213.922 78.3176C212.839 77.8593 211.724 77.5104 210.578 77.2708C209.427 77.0312 208.271 76.901 207.094 76.8854L143.745 76.6666L42.6406 76.3229L19.3177 76.2447L37.25 94.1822V24.8906L19.3177 42.8333H354.703C370.099 42.8333 385.531 43.0989 400.922 42.8333C401.146 42.8333 401.354 42.8333 401.578 42.8333C410.953 42.8333 419.958 34.5624 419.51 24.8906C419.057 15.2239 411.641 6.95827 401.578 6.95827Z" fill="#EBC38B"/>
<path d="M17.9532 185.052L58.2136 184.812L122.422 184.427L137.188 184.344L119.26 166.406V365.5C119.276 366.672 119.401 367.833 119.646 368.979C119.885 370.13 120.234 371.245 120.693 372.323C121.146 373.401 121.703 374.427 122.359 375.401C123.01 376.375 123.755 377.276 124.583 378.104C125.412 378.937 126.313 379.677 127.287 380.333C128.26 380.99 129.287 381.542 130.365 382C131.448 382.453 132.563 382.802 133.708 383.047C134.859 383.286 136.016 383.417 137.188 383.432H281.891C283.068 383.417 284.224 383.286 285.375 383.047C286.521 382.802 287.635 382.458 288.719 382C289.797 381.542 290.823 380.99 291.797 380.333C292.771 379.677 293.672 378.937 294.5 378.104C295.333 377.276 296.073 376.375 296.729 375.401C297.385 374.432 297.943 373.406 298.396 372.323C298.854 371.245 299.203 370.13 299.443 368.979C299.688 367.833 299.818 366.672 299.833 365.5V166.505L281.891 184.437L320.005 184.266L380.495 183.979L394.557 183.917C395.729 183.896 396.885 183.766 398.037 183.526C399.182 183.281 400.297 182.932 401.375 182.479C402.453 182.021 403.479 181.463 404.453 180.807C405.427 180.156 406.328 179.411 407.156 178.583C407.984 177.755 408.729 176.854 409.38 175.88C410.037 174.906 410.594 173.88 411.052 172.802C411.505 171.724 411.854 170.609 412.099 169.463C412.339 168.312 412.469 167.156 412.484 165.984V94.6249C412.469 93.453 412.344 92.2916 412.099 91.1458C411.859 89.9947 411.51 88.8801 411.052 87.802C410.599 86.7187 410.042 85.6926 409.385 84.7239C408.734 83.7499 407.99 82.8489 407.162 82.0155C406.333 81.1874 405.432 80.4478 404.458 79.7916C403.484 79.1353 402.458 78.5833 401.38 78.1249C400.297 77.6666 399.182 77.3176 398.037 77.078C396.885 76.8385 395.729 76.7083 394.557 76.6926L353.354 76.8228L287.969 77.026L272.813 77.0676C263.427 77.0676 254.427 85.3437 254.87 95.0103C255.313 104.677 262.75 112.979 272.859 112.943L314.052 112.812L379.438 112.609L394.599 112.562L376.662 94.6249V165.984L394.599 148.042L356.484 148.224L296 148.5L281.938 148.568C280.766 148.583 279.604 148.713 278.458 148.953C277.313 149.198 276.198 149.547 275.115 150.005C274.037 150.458 273.01 151.016 272.037 151.672C271.063 152.328 270.162 153.068 269.333 153.901C268.505 154.729 267.766 155.63 267.109 156.604C266.453 157.578 265.896 158.604 265.443 159.682C264.984 160.766 264.635 161.88 264.396 163.026C264.151 164.172 264.026 165.333 264.005 166.505V365.5L281.938 347.557H137.188L155.13 365.5V166.406C155.115 165.234 154.984 164.073 154.745 162.922C154.505 161.776 154.156 160.661 153.698 159.578C153.24 158.5 152.688 157.474 152.031 156.5C151.375 155.526 150.63 154.625 149.802 153.797C148.974 152.969 148.073 152.224 147.099 151.568C146.125 150.917 145.099 150.359 144.016 149.901C142.932 149.448 141.818 149.099 140.672 148.859C139.526 148.62 138.365 148.49 137.188 148.474L96.9324 148.713L32.724 149.12L17.9532 149.198C8.57298 149.266 -0.427022 157.417 0.0156856 167.141C0.458394 176.865 7.9011 185.135 17.9532 185.073V185.052Z" fill="#EBC38B"/>
<mask id="mask0_1086_4198" style="mask-type:luminance" maskUnits="userSpaceOnUse" x="445" y="104" width="366" height="266">
<path d="M445.91 104H810.494V369.786H445.91V104Z" fill="white"/>
</mask>
<g mask="url(#mask0_1086_4198)">
<path d="M678.458 105.224H579.156C578.26 105.224 577.359 105.271 576.468 105.359C575.572 105.448 574.687 105.578 573.801 105.755C572.921 105.927 572.051 106.146 571.192 106.406C570.333 106.667 569.484 106.974 568.656 107.318C567.822 107.661 567.015 108.042 566.218 108.469C565.426 108.891 564.656 109.354 563.911 109.849C563.161 110.349 562.442 110.885 561.744 111.458C561.051 112.026 560.385 112.63 559.749 113.266C559.114 113.901 558.515 114.568 557.942 115.26C557.374 115.953 556.838 116.677 556.338 117.422C555.838 118.172 555.38 118.943 554.952 119.734C554.531 120.526 554.145 121.338 553.801 122.167C553.458 123 553.156 123.844 552.895 124.703C552.635 125.562 552.416 126.432 552.239 127.318C552.067 128.198 551.932 129.083 551.843 129.979C551.76 130.875 551.713 131.771 551.713 132.672C551.713 133.568 551.76 134.463 551.843 135.359C551.932 136.255 552.067 137.141 552.239 138.026C552.416 138.906 552.635 139.776 552.895 140.635C553.156 141.495 553.458 142.344 553.801 143.172C554.145 144 554.531 144.812 554.952 145.604C555.38 146.401 555.838 147.172 556.338 147.917C556.838 148.667 557.374 149.385 557.942 150.078C558.515 150.776 559.114 151.437 559.749 152.073C560.385 152.713 561.051 153.312 561.744 153.885C562.442 154.453 563.161 154.99 563.911 155.49C564.656 155.99 565.426 156.448 566.218 156.875C567.015 157.297 567.822 157.682 568.656 158.026C569.484 158.37 570.333 158.672 571.192 158.932C572.051 159.193 572.921 159.411 573.801 159.588C574.682 159.76 575.572 159.896 576.468 159.979C577.359 160.068 578.26 160.115 579.156 160.115H678.458C680.989 160.115 683.515 160.24 686.036 160.484C688.551 160.734 691.051 161.104 693.536 161.599C696.015 162.094 698.468 162.708 700.89 163.443C703.312 164.177 705.692 165.026 708.031 165.995C710.369 166.963 712.656 168.047 714.885 169.24C717.119 170.432 719.286 171.729 721.39 173.135C723.494 174.542 725.525 176.047 727.484 177.656C729.437 179.26 731.312 180.958 733.098 182.745C734.89 184.536 736.588 186.411 738.192 188.365C739.801 190.323 741.307 192.354 742.713 194.458C744.119 196.562 745.416 198.729 746.609 200.963C747.801 203.193 748.885 205.479 749.854 207.818C750.822 210.156 751.671 212.536 752.406 214.958C753.14 217.38 753.755 219.833 754.249 222.312C754.744 224.797 755.114 227.297 755.364 229.812C755.609 232.333 755.734 234.859 755.734 237.391C755.734 239.922 755.609 242.443 755.364 244.963C755.114 247.479 754.744 249.984 754.249 252.463C753.755 254.948 753.14 257.401 752.406 259.823C751.671 262.245 750.822 264.625 749.854 266.958C748.885 269.297 747.801 271.583 746.609 273.818C745.416 276.047 744.119 278.219 742.713 280.323C741.307 282.427 739.801 284.453 738.192 286.411C736.588 288.37 734.89 290.24 733.098 292.031C731.312 293.818 729.437 295.516 727.484 297.125C725.525 298.729 723.494 300.234 721.39 301.641C719.286 303.047 717.119 304.349 714.885 305.542C712.656 306.734 710.369 307.812 708.031 308.781C705.692 309.75 703.312 310.604 700.89 311.338C698.468 312.073 696.015 312.687 693.536 313.177C691.051 313.672 688.551 314.042 686.036 314.292C683.515 314.542 680.989 314.661 678.458 314.661H472.27C471.421 314.734 470.572 314.844 469.734 314.995C468.89 315.141 468.057 315.328 467.234 315.557C466.411 315.781 465.598 316.047 464.796 316.349C463.999 316.651 463.213 316.99 462.447 317.365C461.676 317.74 460.932 318.151 460.202 318.594C459.468 319.036 458.765 319.516 458.077 320.026C457.39 320.536 456.734 321.078 456.098 321.651C455.463 322.224 454.854 322.823 454.275 323.453C453.697 324.083 453.15 324.734 452.63 325.417C452.114 326.094 451.63 326.797 451.176 327.521C450.723 328.245 450.301 328.99 449.921 329.755C449.536 330.521 449.192 331.297 448.88 332.094C448.567 332.891 448.296 333.698 448.062 334.521C447.822 335.344 447.63 336.172 447.468 337.01C447.312 337.854 447.192 338.698 447.114 339.547C447.036 340.401 446.994 341.255 446.994 342.109C446.994 342.963 447.036 343.812 447.114 344.667C447.192 345.516 447.312 346.365 447.468 347.203C447.63 348.042 447.822 348.875 448.062 349.693C448.296 350.516 448.567 351.323 448.88 352.12C449.192 352.917 449.536 353.698 449.921 354.458C450.301 355.224 450.723 355.969 451.176 356.693C451.63 357.417 452.114 358.12 452.63 358.802C453.15 359.479 453.697 360.135 454.275 360.76C454.854 361.391 455.463 361.99 456.098 362.562C456.734 363.135 457.39 363.677 458.077 364.187C458.765 364.698 459.468 365.177 460.202 365.62C460.932 366.068 461.676 366.474 462.447 366.849C463.213 367.224 463.999 367.562 464.796 367.865C465.598 368.167 466.411 368.432 467.234 368.661C468.057 368.885 468.89 369.073 469.734 369.224C470.572 369.37 471.421 369.479 472.27 369.552H678.098C680.26 369.552 682.416 369.5 684.577 369.391C686.734 369.286 688.89 369.125 691.041 368.917C693.192 368.703 695.333 368.437 697.473 368.12C699.609 367.807 701.739 367.437 703.859 367.016C705.979 366.594 708.088 366.12 710.182 365.594C712.281 365.073 714.359 364.495 716.426 363.87C718.494 363.24 720.546 362.562 722.583 361.838C724.619 361.109 726.635 360.333 728.63 359.505C730.63 358.677 732.604 357.807 734.557 356.88C736.51 355.958 738.442 354.99 740.348 353.969C742.255 352.953 744.135 351.885 745.989 350.776C747.843 349.667 749.666 348.51 751.463 347.312C753.26 346.115 755.025 344.87 756.765 343.583C758.499 342.297 760.202 340.969 761.874 339.599C763.546 338.229 765.182 336.818 766.786 335.37C768.39 333.917 769.952 332.432 771.484 330.901C773.01 329.375 774.499 327.812 775.952 326.213C777.406 324.609 778.817 322.979 780.192 321.307C781.562 319.641 782.895 317.937 784.182 316.203C785.473 314.469 786.718 312.703 787.916 310.906C789.119 309.109 790.275 307.286 791.39 305.432C792.505 303.578 793.567 301.703 794.588 299.797C795.609 297.891 796.583 295.963 797.51 294.01C798.437 292.057 799.312 290.083 800.14 288.088C800.968 286.094 801.749 284.078 802.479 282.042C803.208 280.01 803.89 277.958 804.52 275.891C805.15 273.823 805.729 271.745 806.255 269.646C806.781 267.552 807.26 265.443 807.682 263.328C808.109 261.208 808.479 259.078 808.796 256.943C809.119 254.807 809.385 252.661 809.598 250.51C809.812 248.359 809.979 246.208 810.083 244.047C810.192 241.891 810.249 239.729 810.255 237.568C810.255 235.406 810.208 233.25 810.104 231.088C809.999 228.932 809.843 226.776 809.635 224.625C809.426 222.474 809.166 220.328 808.854 218.193C808.536 216.052 808.171 213.927 807.755 211.807C807.333 209.687 806.864 207.578 806.343 205.479C805.822 203.38 805.249 201.297 804.624 199.229C803.999 197.161 803.327 195.109 802.604 193.073C801.88 191.036 801.104 189.021 800.281 187.021C799.458 185.026 798.583 183.047 797.666 181.094C796.744 179.135 795.775 177.208 794.76 175.297C793.744 173.391 792.682 171.51 791.577 169.656C790.468 167.797 789.317 165.969 788.119 164.172C786.921 162.375 785.682 160.604 784.395 158.865C783.114 157.13 781.786 155.422 780.421 153.75C779.051 152.078 777.645 150.437 776.197 148.833C774.749 147.229 773.26 145.661 771.739 144.13C770.213 142.599 768.65 141.104 767.051 139.651C765.452 138.198 763.822 136.781 762.156 135.406C760.489 134.031 758.786 132.698 757.051 131.406C755.322 130.12 753.557 128.87 751.765 127.667C749.968 126.458 748.145 125.302 746.296 124.187C744.447 123.068 742.567 122 740.666 120.979C738.76 119.953 736.833 118.979 734.885 118.052C732.932 117.12 730.958 116.24 728.963 115.411C726.968 114.578 724.958 113.797 722.921 113.062C720.89 112.328 718.838 111.646 716.775 111.016C714.708 110.38 712.63 109.802 710.531 109.271C708.437 108.74 706.333 108.26 704.213 107.833C702.093 107.406 699.968 107.031 697.827 106.708C695.692 106.385 693.551 106.115 691.4 105.896C689.249 105.682 687.093 105.516 684.937 105.401C682.781 105.292 680.619 105.234 678.458 105.224Z" fill="#EAC28B"/>
</g>
<mask id="mask1_1086_4198" style="mask-type:luminance" maskUnits="userSpaceOnUse" x="445" y="0" width="366" height="266">
<path d="M445.91 0H810.494V265.333H445.91V0Z" fill="white"/>
</mask>
<g mask="url(#mask1_1086_4198)">
<path d="M579.156 264.469H678.458C679.359 264.469 680.255 264.427 681.15 264.339C682.041 264.25 682.932 264.12 683.812 263.943C684.692 263.771 685.567 263.552 686.426 263.292C687.286 263.026 688.13 262.724 688.963 262.38C689.791 262.037 690.604 261.656 691.395 261.229C692.187 260.807 692.958 260.344 693.708 259.844C694.452 259.349 695.176 258.813 695.869 258.24C696.562 257.672 697.229 257.068 697.864 256.432C698.499 255.797 699.104 255.13 699.671 254.438C700.244 253.745 700.781 253.021 701.275 252.276C701.775 251.526 702.239 250.755 702.661 249.964C703.088 249.172 703.468 248.359 703.812 247.531C704.156 246.698 704.458 245.854 704.723 244.995C704.984 244.135 705.197 243.266 705.374 242.38C705.551 241.5 705.682 240.615 705.77 239.719C705.859 238.823 705.9 237.927 705.9 237.026C705.9 236.13 705.859 235.234 705.77 234.339C705.682 233.443 705.551 232.557 705.374 231.672C705.197 230.792 704.984 229.922 704.723 229.063C704.458 228.203 704.156 227.354 703.812 226.526C703.468 225.693 703.088 224.885 702.661 224.089C702.239 223.297 701.775 222.526 701.275 221.781C700.781 221.031 700.244 220.313 699.671 219.62C699.104 218.922 698.499 218.255 697.864 217.62C697.229 216.984 696.562 216.385 695.869 215.813C695.176 215.245 694.452 214.708 693.708 214.208C692.958 213.708 692.187 213.25 691.395 212.823C690.604 212.401 689.791 212.016 688.963 211.672C688.13 211.328 687.286 211.026 686.426 210.766C685.567 210.505 684.692 210.287 683.812 210.109C682.932 209.938 682.041 209.802 681.15 209.719C680.255 209.63 679.359 209.583 678.458 209.583H579.156C576.624 209.583 574.104 209.458 571.583 209.214C569.062 208.964 566.562 208.594 564.083 208.099C561.598 207.604 559.145 206.99 556.723 206.255C554.301 205.521 551.921 204.672 549.583 203.703C547.244 202.734 544.963 201.651 542.729 200.458C540.499 199.266 538.327 197.969 536.223 196.563C534.119 195.156 532.088 193.651 530.135 192.042C528.176 190.438 526.307 188.74 524.515 186.953C522.723 185.162 521.025 183.287 519.421 181.333C517.817 179.375 516.312 177.344 514.906 175.24C513.499 173.135 512.197 170.969 511.005 168.734C509.812 166.505 508.734 164.219 507.765 161.88C506.796 159.542 505.942 157.162 505.208 154.74C504.473 152.318 503.859 149.865 503.364 147.385C502.874 144.901 502.499 142.401 502.255 139.885C502.005 137.365 501.88 134.839 501.88 132.307C501.88 129.776 502.005 127.255 502.255 124.734C502.499 122.214 502.874 119.714 503.364 117.234C503.859 114.75 504.473 112.297 505.208 109.875C505.942 107.453 506.796 105.073 507.765 102.734C508.734 100.401 509.812 98.1146 511.005 95.8803C512.197 93.6511 513.499 91.4792 514.906 89.3751C516.312 87.2709 517.817 85.2448 519.421 83.2865C521.025 81.3282 522.723 79.4584 524.515 77.6667C526.307 75.875 528.176 74.1823 530.135 72.573C532.088 70.9688 534.119 69.4636 536.223 68.0573C538.327 66.6511 540.499 65.349 542.729 64.1563C544.963 62.9636 547.244 61.8855 549.583 60.9167C551.921 59.948 554.301 59.0938 556.723 58.3594C559.145 57.625 561.598 57.0105 564.083 56.5209C566.562 56.0261 569.062 55.6563 571.583 55.4063C574.104 55.1563 576.624 55.0313 579.156 55.0313H782.817C783.713 55.0313 784.614 54.9896 785.505 54.9011C786.4 54.8125 787.286 54.6771 788.171 54.5053C789.051 54.3282 789.921 54.1094 790.781 53.849C791.64 53.5886 792.484 53.2865 793.317 52.9428C794.145 52.599 794.958 52.2136 795.749 51.7865C796.541 51.3646 797.312 50.9011 798.057 50.4063C798.801 49.9063 799.525 49.3698 800.218 48.7969C800.916 48.2292 801.577 47.625 802.213 46.9896C802.848 46.3542 803.452 45.6928 804.02 44.9948C804.593 44.3021 805.124 43.5782 805.624 42.8334C806.124 42.0834 806.583 41.3178 807.01 40.5209C807.432 39.7292 807.817 38.9219 808.161 38.0886C808.505 37.2605 808.807 36.4115 809.067 35.5521C809.327 34.6928 809.546 33.823 809.718 32.9428C809.895 32.0625 810.025 31.1719 810.114 30.2813C810.202 29.3855 810.249 28.4896 810.249 27.5886C810.249 26.6928 810.202 25.7969 810.114 24.9011C810.025 24.0053 809.895 23.1198 809.718 22.2396C809.546 21.3542 809.327 20.4844 809.067 19.625C808.807 18.7657 808.505 17.9219 808.161 17.0886C807.817 16.2605 807.432 15.448 807.01 14.6563C806.583 13.8646 806.124 13.0938 805.624 12.349C805.124 11.599 804.593 10.8802 804.02 10.1823C803.452 9.48963 802.848 8.82296 802.213 8.18754C801.577 7.55212 800.916 6.95317 800.218 6.38025C799.525 5.81254 798.801 5.27608 798.057 4.77608C797.312 4.27608 796.541 3.81775 795.749 3.39067C794.958 2.96879 794.145 2.58337 793.317 2.23962C792.484 1.89587 791.64 1.59379 790.781 1.33337C789.921 1.06775 789.051 0.854208 788.171 0.677124C787.286 0.500041 786.4 0.369832 785.505 0.281291C784.614 0.192748 783.713 0.145874 782.817 0.145874H579.156C576.994 0.145874 574.833 0.197958 572.671 0.307332C570.51 0.411499 568.354 0.572957 566.202 0.781291C564.051 0.994832 561.906 1.26046 559.765 1.57817C557.624 1.89587 555.494 2.26567 553.374 2.68754C551.249 3.10942 549.14 3.58337 547.046 4.10942C544.947 4.63546 542.864 5.20837 540.791 5.83858C538.723 6.46358 536.671 7.14587 534.635 7.86983C532.598 8.599 530.577 9.38025 528.583 10.2084C526.583 11.0365 524.604 11.9115 522.65 12.8334C520.697 13.7605 518.765 14.7344 516.854 15.75C514.947 16.7709 513.067 17.8386 511.213 18.948C509.359 20.0625 507.531 21.2188 505.734 22.4219C503.932 23.6198 502.166 24.8646 500.426 26.1563C498.692 27.4428 496.984 28.7761 495.312 30.1459C493.64 31.5157 492.005 32.9323 490.4 34.3855C488.801 35.8334 487.234 37.3282 485.702 38.8542C484.176 40.3855 482.682 41.9532 481.229 43.5521C479.781 45.1563 478.364 46.7917 476.994 48.4636C475.619 50.1355 474.291 51.8438 473.005 53.5782C471.713 55.3178 470.468 57.0834 469.27 58.8855C468.067 60.6823 466.911 62.5105 465.796 64.3646C464.687 66.2188 463.619 68.099 462.598 70.0105C461.583 71.9167 460.609 73.849 459.682 75.8021C458.76 77.7553 457.885 79.7344 457.057 81.7344C456.229 83.7292 455.447 85.7501 454.718 87.7865C453.989 89.823 453.312 91.8751 452.687 93.9428C452.057 96.0157 451.479 98.099 450.958 100.198C450.432 102.292 449.958 104.406 449.536 106.526C449.114 108.646 448.744 110.776 448.426 112.917C448.109 115.057 447.843 117.203 447.63 119.354C447.421 121.505 447.26 123.662 447.156 125.823C447.046 127.984 446.994 130.146 446.994 132.307C446.994 134.474 447.046 136.635 447.156 138.792C447.26 140.953 447.421 143.109 447.63 145.266C447.843 147.417 448.109 149.563 448.426 151.703C448.744 153.839 449.114 155.969 449.536 158.094C449.958 160.214 450.432 162.323 450.958 164.422C451.479 166.521 452.057 168.604 452.687 170.672C453.312 172.745 453.989 174.797 454.718 176.833C455.447 178.87 456.229 180.885 457.057 182.885C457.885 184.885 458.76 186.859 459.682 188.818C460.609 190.771 461.583 192.703 462.598 194.609C463.619 196.516 464.687 198.401 465.796 200.255C466.911 202.109 468.067 203.938 469.27 205.734C470.468 207.531 471.713 209.302 473.005 211.037C474.291 212.776 475.619 214.479 476.994 216.151C478.364 217.823 479.781 219.464 481.229 221.063C482.682 222.667 484.176 224.234 485.702 225.76C487.234 227.292 488.801 228.781 490.4 230.234C492.005 231.688 493.64 233.099 495.312 234.474C496.984 235.844 498.692 237.172 500.426 238.464C502.166 239.75 503.932 240.995 505.734 242.198C507.531 243.401 509.359 244.557 511.213 245.667C513.067 246.781 514.947 247.844 516.854 248.865C518.765 249.885 520.697 250.859 522.65 251.781C524.604 252.708 526.583 253.583 528.583 254.412C530.577 255.24 532.598 256.016 534.635 256.745C536.671 257.474 538.723 258.151 540.791 258.781C542.864 259.406 544.947 259.984 547.046 260.51C549.14 261.037 551.249 261.51 553.374 261.932C555.494 262.354 557.624 262.724 559.765 263.042C561.906 263.359 564.051 263.625 566.202 263.833C568.354 264.047 570.51 264.208 572.671 264.313C574.833 264.417 576.994 264.469 579.156 264.469Z" fill="#EAC28B"/>
</g>
</svg>
