<svg width="831" height="608" viewBox="0 0 831 608" fill="none" xmlns="http://www.w3.org/2000/svg">
<path d="M4.79167 426.71C4.79167 426.21 9.08854 425.96 17.6875 425.96H30.0417L32.4375 430.377C33.5312 432.835 36.1094 438.429 40.1667 447.148C44.0938 455.621 46.1875 459.918 46.4375 460.043C46.5469 460.043 46.9688 459.371 47.7083 458.023C48.4427 456.663 49.3958 454.726 50.5625 452.21C51.7292 449.7 52.9896 446.97 54.3542 444.023C59.5052 433.22 62.4479 427.502 63.1875 426.877C63.5625 426.392 64.5104 426.121 66.0417 426.064C67.5833 425.996 70.8646 425.96 75.8958 425.96L87.6875 426.148L88.25 428.168C88.9844 432.101 89.875 442.08 90.9167 458.106C91.9583 474.137 92.6667 489.085 93.0417 502.96C93.151 507.877 93.2083 511.564 93.2083 514.023C93.2083 515.121 93.1771 516.163 93.125 517.148C93.0677 518.137 92.7292 518.746 92.1042 518.981C91.3646 519.356 88.8438 519.58 84.5417 519.648C80.25 519.705 77.25 519.731 75.5417 519.731C72.3438 519.731 70.0677 519.668 68.7083 519.543L65.2083 518.981L65.3958 510.335C65.3958 504.809 65.6979 495.752 66.3125 483.168C66.9375 470.575 67.3021 463.575 67.4167 462.168C67.5417 460.752 67.6042 459.741 67.6042 459.127C67.6042 458.517 67.5469 458.21 67.4375 458.21C66.9375 458.21 66.4427 459.189 65.9583 461.148C64.9688 463.606 63.1562 467.627 60.5208 473.21C57.8802 478.793 56.2552 481.898 55.6458 482.523C54.9062 483.262 51.8958 483.689 46.6042 483.814L38.5 484.168L37.3958 482.523C36.6562 481.163 34.5104 476.741 30.9583 469.252C27.276 461.517 25.1875 457.648 24.6875 457.648C24.6875 457.648 24.6875 457.71 24.6875 457.835C24.6875 457.96 24.8125 458.33 25.0625 458.939C25.5469 461.398 26.1302 469.97 26.8125 484.648C27.4896 499.314 27.8333 508.981 27.8333 513.648C27.8333 517.095 27.7083 518.871 27.4583 518.981C27.0833 519.356 24.1927 519.58 18.7917 519.648C13.3854 519.705 9.77083 519.731 7.9375 519.731C3.14583 519.731 0.5625 519.543 0.1875 519.168C0.0625 519.043 0 518.184 0 516.585C0 514.252 0.125 510.142 0.375 504.252C0.625 501.309 0.927084 495.637 1.29167 487.231C1.66667 478.814 1.91667 473.252 2.04167 470.543C2.40104 457.892 2.77083 449.913 3.14583 446.606C3.75521 435.054 4.30208 428.418 4.79167 426.71Z" fill="#EBC38B"/>
<path d="M124.153 425.96C124.653 425.835 126.132 425.773 128.59 425.773C129.934 425.773 132.45 425.809 136.132 425.877C139.809 425.934 141.715 426.023 141.84 426.148C141.965 426.273 142.268 429.163 142.757 434.814C143.992 450.163 144.788 464.898 145.153 479.023C145.528 493.148 145.715 502.663 145.715 507.564C145.715 514.564 145.471 518.252 144.986 518.627C144.361 518.991 142.018 519.231 137.965 519.356C133.924 519.481 131.163 519.543 129.695 519.543C126.497 519.543 124.226 519.418 122.882 519.168L119.549 518.814L119.924 507.023C120.299 500.387 120.601 489.267 120.84 473.668C121.575 446.783 122.257 431.616 122.882 428.168C122.992 426.95 123.413 426.21 124.153 425.96Z" fill="#EBC38B"/>
<path d="M175.197 425.96C175.431 425.726 179.353 425.606 186.967 425.606H198.405L199.509 427.064C200.728 428.788 203.551 434.012 207.967 442.731C211.41 449.856 214.415 456.523 216.988 462.731C219.572 468.929 221.723 473.746 223.447 477.189C225.165 480.621 226.155 482.335 226.405 482.335C226.405 482.335 226.707 478.283 227.322 470.168C228.665 445.866 229.467 432.116 229.717 428.918C230.077 427.684 230.348 426.887 230.53 426.523C230.723 426.148 231.311 425.96 232.301 425.96C233.035 425.835 234.572 425.773 236.905 425.773C237.999 425.773 240.113 425.809 243.238 425.877C246.374 425.934 248.072 426.085 248.322 426.335C248.806 426.825 249.327 434.064 249.884 448.064C250.436 462.064 250.895 477.293 251.259 493.752L251.634 517.877L250.155 518.439C248.556 518.689 245.27 518.845 240.301 518.898C235.327 518.955 232.04 518.981 230.447 518.981C226.889 518.981 224.926 518.929 224.551 518.814C223.811 518.314 222.832 516.72 221.613 514.023C218.04 505.429 214.228 496.83 210.176 488.231C206.134 479.637 202.759 472.392 200.051 466.502C197.353 460.601 195.822 457.648 195.447 457.648C195.447 457.648 195.697 460.97 196.197 467.606C197.415 485.288 198.03 499.773 198.03 511.064V518.627L193.613 518.981C192.374 519.106 190.957 519.168 189.363 519.168C187.764 519.168 185.342 519.116 182.092 519.002C178.842 518.877 176.165 518.689 174.072 518.439L171.863 517.877L172.238 500.752C172.723 481.601 173.207 464.533 173.697 449.543C174.197 434.559 174.697 426.7 175.197 425.96Z" fill="#EBC38B"/>
<path d="M286.26 425.96C291.411 425.726 297.49 425.606 304.49 425.606C309.281 425.606 316.521 425.7 326.219 425.877C335.927 426.059 341.094 426.455 341.719 427.064C341.953 427.314 342.286 428.825 342.719 431.585C343.146 434.351 343.49 436.96 343.74 439.418V443.273L338.76 443.835C335.438 444.45 328.375 444.752 317.573 444.752H301.177L301.74 451.023C301.865 455.189 301.927 458.137 301.927 459.856V462.814L319.427 463.168C330.844 463.293 336.729 463.481 337.094 463.731C337.469 464.345 337.958 467.908 338.573 474.418L338.948 480.127L335.99 480.314C333.906 480.679 327.891 480.856 317.948 480.856H303.219V500.023H344.281L345.219 505.731C346.062 510.273 346.49 513.158 346.49 514.377V515.668C346.49 516.408 346.208 516.898 345.656 517.148C345.115 517.398 342.812 517.705 338.76 518.064C338.021 518.314 337.469 518.502 337.094 518.627C333.536 518.866 325.37 518.981 312.594 518.981C299.828 518.981 290.682 518.866 285.156 518.627L277.781 518.064V509.96C277.781 502.476 278.208 489.033 279.073 469.627C279.932 450.226 280.729 437.023 281.469 430.023L282.031 426.148L286.26 425.96Z" fill="#EBC38B"/>
<path d="M405.079 424.856C407.663 424.247 410.236 423.939 412.809 423.939C415.142 423.939 418.335 424.283 422.392 424.96C426.444 425.627 430.251 426.95 433.809 428.918C436.017 430.142 438.626 432.2 441.642 435.085C444.652 437.976 446.163 439.788 446.163 440.523C446.163 441.137 445.048 443.163 442.829 446.606C440.621 450.038 438.663 452.679 436.954 454.523L434.559 457.273L432.517 454.877C428.96 450.585 425.277 447.642 421.475 446.043C418.767 445.059 415.939 444.502 412.996 444.377C410.298 444.377 408.027 444.752 406.184 445.502C404.335 446.241 402.434 447.46 400.475 449.168C399.001 450.642 397.559 452.668 396.142 455.252C394.725 457.835 393.71 460.231 393.1 462.439C392.611 464.398 392.371 467.038 392.371 470.356C392.371 470.856 392.397 472.184 392.454 474.335C392.522 476.476 392.861 478.523 393.475 480.481C395.434 488.22 399.48 493.564 405.621 496.523C407.215 497.387 408.475 497.939 409.392 498.189C410.319 498.429 412.079 498.543 414.663 498.543C416.996 498.543 418.647 498.455 419.621 498.273C420.605 498.08 421.652 497.616 422.767 496.877C426.194 495.168 429.204 492.408 431.788 488.585L433.621 485.835L435.829 486.939C437.423 487.804 439.298 489.22 441.454 491.189C443.605 493.148 445.48 495.043 447.079 496.877L449.475 499.835L447.809 503.148C446.46 505.481 444.496 507.913 441.913 510.439C439.34 512.955 436.892 514.887 434.559 516.231C431.236 517.83 428.288 518.908 425.704 519.46C423.121 520.002 419.496 520.398 414.829 520.648C412.871 520.773 411.277 520.835 410.059 520.835C408.694 520.835 407.434 520.741 406.267 520.564C405.1 520.372 403.475 520.095 401.392 519.731C394.392 517.887 388.621 515.247 384.079 511.814C377.814 506.898 373.454 500.762 370.996 493.398C368.538 486.023 367.309 479.512 367.309 473.856C367.309 470.663 367.611 467.533 368.225 464.46C369.71 456.241 372.626 448.997 376.975 442.731C381.335 436.47 386.647 431.741 392.913 428.543C396.48 426.95 400.538 425.72 405.079 424.856Z" fill="#EBC38B"/>
<path d="M473.969 424.856C474.219 424.372 475.573 424.127 478.031 424.127C479.375 424.127 480.969 424.247 482.802 424.481C488.578 424.481 491.656 424.606 492.031 424.856C492.266 425.106 492.448 426.095 492.573 427.814C492.698 429.038 492.938 429.648 493.302 429.648C500.188 425.97 507.312 424.127 514.677 424.127C521.313 424.127 527.208 425.543 532.365 428.377C537.516 431.2 541.26 435.059 543.594 439.96C546.177 445.127 547.469 450.351 547.469 455.627C547.469 458.085 547.161 460.663 546.552 463.356C545.688 467.773 544.365 471.366 542.573 474.127C540.792 476.892 538.37 479.262 535.302 481.231C533.344 482.455 532.365 483.189 532.365 483.439C532.365 483.929 535.125 489.33 540.656 499.648C546.182 510.205 548.948 515.976 548.948 516.96C548.573 517.575 546.479 518.345 542.677 519.273C538.87 520.189 535.307 520.648 531.99 520.648C530.156 520.648 528.99 520.559 528.49 520.377C528 520.184 527.635 519.783 527.385 519.168C526.286 516.96 523.094 510.793 517.802 500.668C512.521 490.533 509.885 485.46 509.885 485.46C509.521 485.101 508.115 484.856 505.656 484.731L501.594 484.356V464.835L508.24 464.46C512.906 464.335 516.036 463.788 517.635 462.814C520.813 460.97 522.406 457.898 522.406 453.606C522.406 453.356 522.406 452.981 522.406 452.481C522.292 447.814 520.391 444.502 516.698 442.543C515.474 442.059 514.557 441.752 513.948 441.627C513.333 441.502 512.536 441.439 511.552 441.439C510.812 441.439 509.828 441.502 508.594 441.627C504.911 441.752 501.969 442.304 499.76 443.273C499.385 443.398 499.016 443.46 498.656 443.46C496.932 444.2 495.885 444.752 495.51 445.127C495.146 445.491 494.906 446.288 494.781 447.523C494.656 448.747 494.594 449.913 494.594 451.023C494.594 452.247 494.656 453.845 494.781 455.814C494.906 457.163 494.969 458.205 494.969 458.939C495.453 468.148 495.76 480.122 495.885 494.856L496.073 518.627L494.427 518.814C493.188 518.929 491.281 518.981 488.698 518.981C486.615 518.981 483.177 518.929 478.385 518.814C473.594 518.689 470.891 518.377 470.281 517.877C470.281 517.877 470.281 517.392 470.281 516.418C470.281 513.46 470.458 505.168 470.823 491.543C471.198 477.918 471.635 466.809 472.135 458.21C472.995 437.325 473.604 426.205 473.969 424.856Z" fill="#EBC38B"/>
<path d="M606.039 425.231C606.539 425.106 608.997 425.043 613.414 425.043C617.831 425.043 620.039 425.231 620.039 425.606C620.539 426.58 621.643 429.033 623.352 432.96C628.018 443.892 633.357 456.877 639.372 471.918C645.398 486.96 649.393 497.434 651.352 503.335C651.977 505.418 652.836 507.877 653.935 510.71L655.602 514.564L652.831 515.668C649.508 517.142 646.102 518.189 642.602 518.814C639.102 519.429 636.737 519.731 635.518 519.731C634.044 519.731 633.122 519.481 632.747 518.981C632.383 518.371 630.914 514.502 628.331 507.377L624.643 496.523H598.685L597.581 499.273C596.341 503.455 595.049 507.325 593.706 510.877L590.747 519.731H588.539C586.331 519.731 582.982 518.908 578.497 517.252C574.023 515.585 570.799 514.017 568.831 512.543C568.591 512.418 568.477 512.054 568.477 511.439C568.477 510.955 568.716 510.002 569.206 508.585C569.69 507.168 572.148 501.121 576.581 490.439C576.581 490.314 576.695 490.189 576.935 490.064C581.112 480.246 583.695 474.106 584.685 471.648C592.294 453.47 597.539 441.189 600.414 434.814C603.299 428.429 605.174 425.231 606.039 425.231ZM615.81 467.043C613.477 459.793 612.122 455.991 611.747 455.627C611.747 455.627 611.69 455.627 611.581 455.627C611.456 455.627 611.206 455.746 610.831 455.981C610.831 456.481 610.711 457.038 610.477 457.648C609.977 459.496 608.924 463.059 607.331 468.335C605.857 473.002 604.94 476.2 604.581 477.918C604.581 477.918 604.581 477.976 604.581 478.085C604.581 478.21 604.758 478.398 605.122 478.648C605.857 478.648 608.008 478.523 611.581 478.273C616.482 478.148 618.997 478.033 619.122 477.918C619.122 477.918 618.018 474.293 615.81 467.043Z" fill="#EBC38B"/>
<path d="M681.947 428.168L682.301 425.96H705.155C720.624 425.96 730.327 426.085 734.259 426.335L740.697 426.877L741.259 428.918C741.493 430.392 741.676 433.095 741.801 437.023L742.363 443.273L739.051 443.648C736.342 443.898 729.582 444.023 718.78 444.023L702.009 444.564V446.043C702.009 447.517 702.186 450.955 702.551 456.356C702.926 461.762 703.113 464.648 703.113 465.023C703.488 465.637 704.53 465.976 706.238 466.043C707.957 466.101 712.811 466.127 720.801 466.127H738.113L738.301 469.252C738.801 473.434 739.051 476.564 739.051 478.648C739.051 480.371 738.863 481.351 738.488 481.585C737.874 482.825 730.749 483.439 717.113 483.439H704.051V518.064L701.092 518.627C699.134 518.752 696.863 518.814 694.28 518.814C691.082 518.814 687.395 518.689 683.217 518.439L678.613 518.064L678.988 496.71C679.238 482.825 679.665 468.7 680.28 454.335C680.889 439.96 681.447 431.241 681.947 428.168Z" fill="#EBC38B"/>
<path d="M773.665 425.773C776.858 425.663 781.832 425.606 788.582 425.606C792.15 425.606 798.29 425.637 806.999 425.689C815.717 425.746 821.738 425.96 825.061 426.335L828.749 426.71L829.478 430.377C830.103 433.335 830.415 436.226 830.415 439.043L830.77 444.023L827.082 444.564C823.9 444.689 819.915 444.877 815.124 445.127C809.957 445.491 807.191 445.731 806.832 445.856C806.707 445.981 806.645 446.413 806.645 447.148C806.645 448.496 806.884 451.137 807.374 455.064C808.733 468.205 809.415 485.158 809.415 505.918V519.168L804.061 519.731C802.587 519.856 800.749 519.918 798.54 519.918C796.457 519.918 793.353 519.856 789.228 519.731C785.113 519.606 782.879 519.304 782.52 518.814C782.52 518.689 782.52 518.2 782.52 517.335C782.52 514.392 782.697 506.377 783.061 493.293C783.436 480.21 783.926 469.929 784.54 462.439C785.025 457.288 785.27 453.231 785.27 450.273L785.457 445.668L774.582 445.127C773.842 445.127 772.801 445.127 771.457 445.127C766.176 444.877 763.134 444.601 762.332 444.293C761.54 443.991 761.145 443.163 761.145 441.814C761.145 441.689 761.145 441.502 761.145 441.252C761.27 440.767 761.332 440.46 761.332 440.335C761.691 436.892 762.15 433.7 762.707 430.752C763.259 427.809 763.78 426.335 764.27 426.335C764.645 426.21 767.775 426.023 773.665 425.773Z" fill="#EBC38B"/>
<path d="M403.863 6.95827H68.4727C53.0716 6.95827 37.6497 6.69264 22.2435 6.95827H21.6029C20.4258 6.9791 19.2695 7.1041 18.1185 7.34889C16.9727 7.58847 15.8581 7.93743 14.7747 8.39056C13.6966 8.84889 12.6706 9.40618 11.6966 10.0572C10.7227 10.7135 9.82162 11.4583 8.99349 12.2864C8.16016 13.1145 7.42057 14.0156 6.76432 14.9895C6.10807 15.9635 5.55078 16.9895 5.09766 18.0676C4.63932 19.151 4.29036 20.2656 4.04557 21.4114C3.80599 22.5572 3.67578 23.7187 3.66016 24.8906V94.1822C3.67578 95.3541 3.80599 96.5156 4.05078 97.6614C4.29036 98.8124 4.63932 99.927 5.09766 101.005C5.55599 102.083 6.11328 103.109 6.76432 104.083C7.42057 105.057 8.16536 105.958 8.99349 106.786C9.82162 107.615 10.7227 108.359 11.6966 109.016C12.6706 109.667 13.6966 110.224 14.7799 110.682C15.8581 111.135 16.9727 111.484 18.1185 111.729C19.2695 111.969 20.4258 112.099 21.6029 112.115L84.9518 112.328L186.056 112.677L209.379 112.75L191.452 94.8176V279.776C191.452 288.344 191.264 296.937 191.452 305.51V305.885C191.452 315.26 199.723 324.271 209.379 323.818C219.04 323.37 227.322 315.943 227.322 305.885V120.927C227.322 112.354 227.504 103.76 227.322 95.1926C227.322 95.0676 227.322 94.9478 227.322 94.8176C227.306 93.6458 227.176 92.4843 226.936 91.3333C226.691 90.1874 226.342 89.0729 225.889 87.9947C225.431 86.9114 224.874 85.8854 224.217 84.9114C223.561 83.9426 222.822 83.0416 221.988 82.2083C221.16 81.3801 220.259 80.6406 219.285 79.9843C218.311 79.3281 217.285 78.776 216.207 78.3176C215.124 77.8593 214.009 77.5104 212.863 77.2708C211.712 77.0312 210.556 76.901 209.379 76.8854L146.03 76.6666L44.9258 76.3229L21.6029 76.2447L39.5352 94.1822V24.8906L21.6029 42.8333H356.988C372.384 42.8333 387.816 43.0989 403.207 42.8333C403.431 42.8333 403.639 42.8333 403.863 42.8333C413.238 42.8333 422.243 34.5624 421.796 24.8906C421.342 15.2239 413.926 6.95827 403.863 6.95827Z" fill="#EBC38B"/>
<path d="M20.2383 185.052L60.4988 184.812L124.707 184.427L139.473 184.344L121.546 166.406V365.5C121.561 366.672 121.686 367.833 121.931 368.979C122.171 370.13 122.52 371.245 122.978 372.323C123.431 373.401 123.988 374.427 124.645 375.401C125.296 376.375 126.04 377.276 126.869 378.104C127.697 378.937 128.598 379.677 129.572 380.333C130.546 380.99 131.572 381.542 132.65 382C133.733 382.453 134.848 382.802 135.994 383.047C137.145 383.286 138.301 383.417 139.473 383.432H284.176C285.353 383.417 286.509 383.286 287.66 383.047C288.806 382.802 289.921 382.458 291.004 382C292.082 381.542 293.108 380.99 294.082 380.333C295.056 379.677 295.957 378.937 296.785 378.104C297.619 377.276 298.358 376.375 299.014 375.401C299.671 374.432 300.228 373.406 300.681 372.323C301.139 371.245 301.488 370.13 301.728 368.979C301.973 367.833 302.103 366.672 302.119 365.5V166.505L284.176 184.437L322.29 184.266L382.78 183.979L396.842 183.917C398.014 183.896 399.171 183.766 400.322 183.526C401.467 183.281 402.582 182.932 403.66 182.479C404.738 182.021 405.764 181.463 406.738 180.807C407.712 180.156 408.613 179.411 409.441 178.583C410.27 177.755 411.014 176.854 411.665 175.88C412.322 174.906 412.879 173.88 413.337 172.802C413.79 171.724 414.139 170.609 414.384 169.463C414.624 168.312 414.754 167.156 414.77 165.984V94.6249C414.754 93.453 414.629 92.2916 414.384 91.1458C414.145 89.9947 413.796 88.8801 413.337 87.802C412.884 86.7187 412.327 85.6926 411.671 84.7239C411.02 83.7499 410.275 82.8489 409.447 82.0155C408.619 81.1874 407.717 80.4478 406.744 79.7916C405.77 79.1353 404.744 78.5833 403.665 78.1249C402.582 77.6666 401.467 77.3176 400.322 77.078C399.171 76.8385 398.014 76.7083 396.842 76.6926L355.639 76.8228L290.254 77.026L275.098 77.0676C265.712 77.0676 256.712 85.3437 257.155 95.0103C257.598 104.677 265.035 112.979 275.145 112.943L316.337 112.812L381.723 112.609L396.884 112.562L378.947 94.6249V165.984L396.884 148.042L358.77 148.224L298.285 148.5L284.223 148.568C283.051 148.583 281.889 148.713 280.744 148.953C279.598 149.198 278.483 149.547 277.4 150.005C276.322 150.458 275.296 151.016 274.322 151.672C273.348 152.328 272.447 153.068 271.619 153.901C270.79 154.729 270.051 155.63 269.395 156.604C268.738 157.578 268.181 158.604 267.728 159.682C267.27 160.766 266.921 161.88 266.681 163.026C266.436 164.172 266.311 165.333 266.29 166.505V365.5L284.223 347.557H139.473L157.415 365.5V166.406C157.4 165.234 157.27 164.073 157.03 162.922C156.79 161.776 156.441 160.661 155.983 159.578C155.525 158.5 154.973 157.474 154.316 156.5C153.66 155.526 152.915 154.625 152.087 153.797C151.259 152.969 150.358 152.224 149.384 151.568C148.41 150.917 147.384 150.359 146.301 149.901C145.218 149.448 144.103 149.099 142.957 148.859C141.811 148.62 140.65 148.49 139.473 148.474L99.2175 148.713L35.0092 149.12L20.2383 149.198C10.8581 149.266 1.85813 157.417 2.30084 167.141C2.74355 176.865 10.1863 185.135 20.2383 185.073V185.052Z" fill="#EBC38B"/>
<mask id="mask0_1085_4185" style="mask-type:luminance" maskUnits="userSpaceOnUse" x="448" y="104" width="365" height="266">
<path d="M448.195 104H812.779V369.786H448.195V104Z" fill="white"/>
</mask>
<g mask="url(#mask0_1085_4185)">
<path d="M680.743 105.224H581.441C580.545 105.224 579.644 105.271 578.753 105.359C577.857 105.448 576.972 105.578 576.087 105.755C575.206 105.927 574.337 106.146 573.477 106.406C572.618 106.667 571.769 106.974 570.941 107.318C570.107 107.661 569.3 108.042 568.503 108.469C567.712 108.891 566.941 109.354 566.196 109.849C565.446 110.349 564.727 110.885 564.029 111.458C563.337 112.026 562.67 112.63 562.035 113.266C561.399 113.901 560.8 114.568 560.227 115.26C559.66 115.953 559.123 116.677 558.623 117.422C558.123 118.172 557.665 118.943 557.238 119.734C556.816 120.526 556.43 121.338 556.087 122.167C555.743 123 555.441 123.844 555.18 124.703C554.92 125.562 554.701 126.432 554.524 127.318C554.352 128.198 554.217 129.083 554.128 129.979C554.045 130.875 553.998 131.771 553.998 132.672C553.998 133.568 554.045 134.463 554.128 135.359C554.217 136.255 554.352 137.141 554.524 138.026C554.701 138.906 554.92 139.776 555.18 140.635C555.441 141.495 555.743 142.344 556.087 143.172C556.43 144 556.816 144.812 557.238 145.604C557.665 146.401 558.123 147.172 558.623 147.917C559.123 148.667 559.66 149.385 560.227 150.078C560.8 150.776 561.399 151.437 562.035 152.073C562.67 152.713 563.337 153.312 564.029 153.885C564.727 154.453 565.446 154.99 566.196 155.49C566.941 155.99 567.712 156.448 568.503 156.875C569.3 157.297 570.107 157.682 570.941 158.026C571.769 158.37 572.618 158.672 573.477 158.932C574.337 159.193 575.206 159.411 576.087 159.588C576.967 159.76 577.857 159.896 578.753 159.979C579.644 160.068 580.545 160.115 581.441 160.115H680.743C683.274 160.115 685.8 160.24 688.321 160.484C690.837 160.734 693.337 161.104 695.821 161.599C698.3 162.094 700.753 162.708 703.175 163.443C705.597 164.177 707.977 165.026 710.316 165.995C712.654 166.963 714.941 168.047 717.17 169.24C719.404 170.432 721.571 171.729 723.675 173.135C725.779 174.542 727.811 176.047 729.769 177.656C731.722 179.26 733.597 180.958 735.383 182.745C737.175 184.536 738.873 186.411 740.477 188.365C742.087 190.323 743.592 192.354 744.998 194.458C746.404 196.562 747.701 198.729 748.894 200.963C750.087 203.193 751.17 205.479 752.139 207.818C753.107 210.156 753.956 212.536 754.691 214.958C755.425 217.38 756.04 219.833 756.535 222.312C757.029 224.797 757.399 227.297 757.649 229.812C757.894 232.333 758.019 234.859 758.019 237.391C758.019 239.922 757.894 242.443 757.649 244.963C757.399 247.479 757.029 249.984 756.535 252.463C756.04 254.948 755.425 257.401 754.691 259.823C753.956 262.245 753.107 264.625 752.139 266.958C751.17 269.297 750.087 271.583 748.894 273.818C747.701 276.047 746.404 278.219 744.998 280.323C743.592 282.427 742.087 284.453 740.477 286.411C738.873 288.37 737.175 290.24 735.383 292.031C733.597 293.818 731.722 295.516 729.769 297.125C727.811 298.729 725.779 300.234 723.675 301.641C721.571 303.047 719.404 304.349 717.17 305.542C714.941 306.734 712.654 307.812 710.316 308.781C707.977 309.75 705.597 310.604 703.175 311.338C700.753 312.073 698.3 312.687 695.821 313.177C693.337 313.672 690.837 314.042 688.321 314.292C685.8 314.542 683.274 314.661 680.743 314.661H474.555C473.706 314.734 472.857 314.844 472.019 314.995C471.175 315.141 470.342 315.328 469.519 315.557C468.696 315.781 467.883 316.047 467.081 316.349C466.285 316.651 465.498 316.99 464.732 317.365C463.962 317.74 463.217 318.151 462.488 318.594C461.753 319.036 461.05 319.516 460.363 320.026C459.675 320.536 459.019 321.078 458.383 321.651C457.748 322.224 457.139 322.823 456.561 323.453C455.982 324.083 455.436 324.734 454.915 325.417C454.399 326.094 453.915 326.797 453.462 327.521C453.008 328.245 452.587 328.99 452.206 329.755C451.821 330.521 451.477 331.297 451.165 332.094C450.852 332.891 450.581 333.698 450.347 334.521C450.107 335.344 449.915 336.172 449.753 337.01C449.597 337.854 449.477 338.698 449.399 339.547C449.321 340.401 449.279 341.255 449.279 342.109C449.279 342.963 449.321 343.812 449.399 344.667C449.477 345.516 449.597 346.365 449.753 347.203C449.915 348.042 450.107 348.875 450.347 349.693C450.581 350.516 450.852 351.323 451.165 352.12C451.477 352.917 451.821 353.698 452.206 354.458C452.587 355.224 453.008 355.969 453.462 356.693C453.915 357.417 454.399 358.12 454.915 358.802C455.436 359.479 455.982 360.135 456.561 360.76C457.139 361.391 457.748 361.99 458.383 362.562C459.019 363.135 459.675 363.677 460.363 364.187C461.05 364.698 461.753 365.177 462.488 365.62C463.217 366.068 463.962 366.474 464.732 366.849C465.498 367.224 466.285 367.562 467.081 367.865C467.883 368.167 468.696 368.432 469.519 368.661C470.342 368.885 471.175 369.073 472.019 369.224C472.857 369.37 473.706 369.479 474.555 369.552H680.383C682.545 369.552 684.701 369.5 686.863 369.391C689.019 369.286 691.175 369.125 693.326 368.917C695.477 368.703 697.618 368.437 699.758 368.12C701.894 367.807 704.024 367.437 706.144 367.016C708.264 366.594 710.373 366.12 712.467 365.594C714.566 365.073 716.644 364.495 718.712 363.87C720.779 363.24 722.831 362.562 724.868 361.838C726.904 361.109 728.92 360.333 730.915 359.505C732.915 358.677 734.889 357.807 736.842 356.88C738.795 355.958 740.727 354.99 742.633 353.969C744.54 352.953 746.42 351.885 748.274 350.776C750.128 349.667 751.951 348.51 753.748 347.312C755.545 346.115 757.311 344.87 759.05 343.583C760.785 342.297 762.488 340.969 764.16 339.599C765.831 338.229 767.467 336.818 769.071 335.37C770.675 333.917 772.238 332.432 773.769 330.901C775.295 329.375 776.785 327.812 778.238 326.213C779.691 324.609 781.102 322.979 782.477 321.307C783.847 319.641 785.18 317.937 786.467 316.203C787.758 314.469 789.003 312.703 790.201 310.906C791.404 309.109 792.561 307.286 793.675 305.432C794.79 303.578 795.852 301.703 796.873 299.797C797.894 297.891 798.868 295.963 799.795 294.01C800.722 292.057 801.597 290.083 802.425 288.088C803.253 286.094 804.035 284.078 804.764 282.042C805.493 280.01 806.175 277.958 806.805 275.891C807.436 273.823 808.014 271.745 808.54 269.646C809.066 267.552 809.545 265.443 809.967 263.328C810.394 261.208 810.764 259.078 811.081 256.943C811.404 254.807 811.67 252.661 811.883 250.51C812.097 248.359 812.264 246.208 812.368 244.047C812.477 241.891 812.535 239.729 812.54 237.568C812.54 235.406 812.493 233.25 812.389 231.088C812.285 228.932 812.128 226.776 811.92 224.625C811.712 222.474 811.451 220.328 811.139 218.193C810.821 216.052 810.456 213.927 810.04 211.807C809.618 209.687 809.149 207.578 808.628 205.479C808.107 203.38 807.535 201.297 806.91 199.229C806.285 197.161 805.613 195.109 804.889 193.073C804.165 191.036 803.389 189.021 802.566 187.021C801.743 185.026 800.868 183.047 799.951 181.094C799.029 179.135 798.061 177.208 797.045 175.297C796.029 173.391 794.967 171.51 793.863 169.656C792.753 167.797 791.602 165.969 790.404 164.172C789.206 162.375 787.967 160.604 786.68 158.865C785.399 157.13 784.071 155.422 782.706 153.75C781.337 152.078 779.93 150.437 778.482 148.833C777.035 147.229 775.545 145.661 774.024 144.13C772.498 142.599 770.936 141.104 769.337 139.651C767.738 138.198 766.107 136.781 764.441 135.406C762.774 134.031 761.071 132.698 759.337 131.406C757.607 130.12 755.842 128.87 754.05 127.667C752.253 126.458 750.43 125.302 748.581 124.187C746.732 123.068 744.852 122 742.951 120.979C741.045 119.953 739.118 118.979 737.17 118.052C735.217 117.12 733.243 116.24 731.248 115.411C729.253 114.578 727.243 113.797 725.206 113.062C723.175 112.328 721.123 111.646 719.061 111.016C716.993 110.38 714.915 109.802 712.816 109.271C710.722 108.74 708.618 108.26 706.498 107.833C704.378 107.406 702.253 107.031 700.113 106.708C697.977 106.385 695.837 106.115 693.686 105.896C691.535 105.682 689.378 105.516 687.222 105.401C685.066 105.292 682.904 105.234 680.743 105.224Z" fill="#EAC28B"/>
</g>
<mask id="mask1_1085_4185" style="mask-type:luminance" maskUnits="userSpaceOnUse" x="448" y="0" width="365" height="266">
<path d="M448.195 0H812.779V265.333H448.195V0Z" fill="white"/>
</mask>
<g mask="url(#mask1_1085_4185)">
<path d="M581.441 264.469H680.743C681.644 264.469 682.54 264.427 683.436 264.339C684.326 264.25 685.217 264.12 686.097 263.943C686.977 263.771 687.852 263.552 688.712 263.292C689.571 263.026 690.415 262.724 691.248 262.38C692.076 262.037 692.889 261.656 693.68 261.229C694.472 260.807 695.243 260.344 695.993 259.844C696.738 259.349 697.462 258.813 698.154 258.24C698.847 257.672 699.514 257.068 700.149 256.432C700.785 255.797 701.389 255.13 701.956 254.438C702.529 253.745 703.066 253.021 703.561 252.276C704.061 251.526 704.524 250.755 704.946 249.964C705.373 249.172 705.753 248.359 706.097 247.531C706.441 246.698 706.743 245.854 707.008 244.995C707.269 244.135 707.482 243.266 707.66 242.38C707.837 241.5 707.967 240.615 708.055 239.719C708.144 238.823 708.186 237.927 708.186 237.026C708.186 236.13 708.144 235.234 708.055 234.339C707.967 233.443 707.837 232.557 707.66 231.672C707.482 230.792 707.269 229.922 707.008 229.063C706.743 228.203 706.441 227.354 706.097 226.526C705.753 225.693 705.373 224.885 704.946 224.089C704.524 223.297 704.061 222.526 703.561 221.781C703.066 221.031 702.529 220.313 701.956 219.62C701.389 218.922 700.785 218.255 700.149 217.62C699.514 216.984 698.847 216.385 698.154 215.813C697.462 215.245 696.738 214.708 695.993 214.208C695.243 213.708 694.472 213.25 693.68 212.823C692.889 212.401 692.076 212.016 691.248 211.672C690.415 211.328 689.571 211.026 688.712 210.766C687.852 210.505 686.977 210.287 686.097 210.109C685.217 209.938 684.326 209.802 683.436 209.719C682.54 209.63 681.644 209.583 680.743 209.583H581.441C578.91 209.583 576.389 209.458 573.868 209.214C571.347 208.964 568.847 208.594 566.368 208.099C563.883 207.604 561.43 206.99 559.008 206.255C556.587 205.521 554.206 204.672 551.868 203.703C549.529 202.734 547.248 201.651 545.014 200.458C542.785 199.266 540.613 197.969 538.508 196.563C536.404 195.156 534.373 193.651 532.42 192.042C530.462 190.438 528.592 188.74 526.8 186.953C525.008 185.162 523.311 183.287 521.706 181.333C520.102 179.375 518.597 177.344 517.191 175.24C515.785 173.135 514.482 170.969 513.29 168.734C512.097 166.505 511.019 164.219 510.05 161.88C509.081 159.542 508.227 157.162 507.493 154.74C506.758 152.318 506.144 149.865 505.649 147.385C505.16 144.901 504.785 142.401 504.54 139.885C504.29 137.365 504.165 134.839 504.165 132.307C504.165 129.776 504.29 127.255 504.54 124.734C504.785 122.214 505.16 119.714 505.649 117.234C506.144 114.75 506.758 112.297 507.493 109.875C508.227 107.453 509.081 105.073 510.05 102.734C511.019 100.401 512.097 98.1146 513.29 95.8803C514.482 93.6511 515.785 91.4792 517.191 89.3751C518.597 87.2709 520.102 85.2448 521.706 83.2865C523.311 81.3282 525.008 79.4584 526.8 77.6667C528.592 75.8751 530.462 74.1823 532.42 72.573C534.373 70.9688 536.404 69.4636 538.508 68.0573C540.613 66.6511 542.785 65.349 545.014 64.1563C547.248 62.9636 549.529 61.8855 551.868 60.9167C554.206 59.948 556.587 59.0938 559.008 58.3594C561.43 57.625 563.883 57.0105 566.368 56.5209C568.847 56.0261 571.347 55.6563 573.868 55.4063C576.389 55.1563 578.91 55.0313 581.441 55.0313H785.102C785.998 55.0313 786.899 54.9896 787.79 54.9011C788.686 54.8125 789.571 54.6771 790.456 54.5053C791.337 54.3282 792.206 54.1094 793.066 53.849C793.925 53.5886 794.769 53.2865 795.602 52.9428C796.43 52.599 797.243 52.2136 798.035 51.7865C798.826 51.3646 799.597 50.9011 800.342 50.4063C801.087 49.9063 801.811 49.3698 802.503 48.7969C803.201 48.2292 803.863 47.625 804.498 46.9896C805.133 46.3542 805.738 45.6928 806.305 44.9948C806.878 44.3021 807.41 43.5782 807.91 42.8334C808.41 42.0834 808.868 41.3178 809.295 40.5209C809.717 39.7292 810.102 38.9219 810.446 38.0886C810.79 37.2605 811.092 36.4115 811.352 35.5521C811.613 34.6928 811.831 33.823 812.003 32.9428C812.18 32.0625 812.311 31.1719 812.399 30.2813C812.488 29.3855 812.535 28.4896 812.535 27.5886C812.535 26.6928 812.488 25.7969 812.399 24.9011C812.311 24.0053 812.18 23.1198 812.003 22.2396C811.831 21.3542 811.613 20.4844 811.352 19.625C811.092 18.7657 810.79 17.9219 810.446 17.0886C810.102 16.2605 809.717 15.448 809.295 14.6563C808.868 13.8646 808.41 13.0938 807.91 12.349C807.41 11.599 806.878 10.8802 806.305 10.1823C805.738 9.48963 805.133 8.82296 804.498 8.18754C803.863 7.55212 803.201 6.95317 802.503 6.38025C801.811 5.81254 801.087 5.27608 800.342 4.77608C799.597 4.27608 798.826 3.81775 798.035 3.39067C797.243 2.96879 796.43 2.58337 795.602 2.23962C794.769 1.89587 793.925 1.59379 793.066 1.33337C792.206 1.06775 791.337 0.854208 790.456 0.677124C789.571 0.500041 788.686 0.369832 787.79 0.281291C786.899 0.192748 785.998 0.145874 785.102 0.145874H581.441C579.279 0.145874 577.118 0.197958 574.956 0.307332C572.795 0.411499 570.639 0.572957 568.488 0.781291C566.337 0.994832 564.191 1.26046 562.05 1.57817C559.91 1.89587 557.779 2.26567 555.66 2.68754C553.535 3.10942 551.425 3.58337 549.331 4.10942C547.232 4.63546 545.149 5.20837 543.076 5.83858C541.008 6.46358 538.956 7.14587 536.92 7.86983C534.883 8.599 532.863 9.38025 530.868 10.2084C528.868 11.0365 526.889 11.9115 524.936 12.8334C522.982 13.7605 521.05 14.7344 519.139 15.75C517.232 16.7709 515.352 17.8386 513.498 18.948C511.644 20.0625 509.816 21.2188 508.019 22.4219C506.217 23.6198 504.451 24.8646 502.712 26.1563C500.977 27.4428 499.269 28.7761 497.597 30.1459C495.925 31.5157 494.29 32.9323 492.686 34.3855C491.087 35.8334 489.519 37.3282 487.988 38.8542C486.462 40.3855 484.967 41.9532 483.514 43.5521C482.066 45.1563 480.649 46.7917 479.279 48.4636C477.904 50.1355 476.576 51.8438 475.29 53.5782C473.998 55.3178 472.753 57.0834 471.555 58.8855C470.352 60.6823 469.196 62.5105 468.081 64.3646C466.972 66.2188 465.904 68.099 464.883 70.0105C463.868 71.9167 462.894 73.849 461.967 75.8021C461.045 77.7553 460.17 79.7344 459.342 81.7344C458.514 83.7292 457.732 85.7501 457.003 87.7865C456.274 89.823 455.597 91.8751 454.972 93.9428C454.342 96.0157 453.764 98.099 453.243 100.198C452.717 102.292 452.243 104.406 451.821 106.526C451.399 108.646 451.029 110.776 450.712 112.917C450.394 115.057 450.128 117.203 449.915 119.354C449.706 121.505 449.545 123.662 449.441 125.823C449.331 127.984 449.279 130.146 449.279 132.307C449.279 134.474 449.331 136.635 449.441 138.792C449.545 140.953 449.706 143.109 449.915 145.266C450.128 147.417 450.394 149.563 450.712 151.703C451.029 153.839 451.399 155.969 451.821 158.094C452.243 160.214 452.717 162.323 453.243 164.422C453.764 166.521 454.342 168.604 454.972 170.672C455.597 172.745 456.274 174.797 457.003 176.833C457.732 178.87 458.514 180.885 459.342 182.885C460.17 184.885 461.045 186.859 461.967 188.818C462.894 190.771 463.868 192.703 464.883 194.609C465.904 196.516 466.972 198.401 468.081 200.255C469.196 202.109 470.352 203.938 471.555 205.734C472.753 207.531 473.998 209.302 475.29 211.037C476.576 212.776 477.904 214.479 479.279 216.151C480.649 217.823 482.066 219.464 483.514 221.063C484.967 222.667 486.462 224.234 487.988 225.76C489.519 227.292 491.087 228.781 492.686 230.234C494.29 231.688 495.925 233.099 497.597 234.474C499.269 235.844 500.977 237.172 502.712 238.464C504.451 239.75 506.217 240.995 508.019 242.198C509.816 243.401 511.644 244.557 513.498 245.667C515.352 246.781 517.232 247.844 519.139 248.865C521.05 249.885 522.982 250.859 524.936 251.781C526.889 252.708 528.868 253.583 530.868 254.412C532.863 255.24 534.883 256.016 536.92 256.745C538.956 257.474 541.008 258.151 543.076 258.781C545.149 259.406 547.232 259.984 549.331 260.51C551.425 261.037 553.535 261.51 555.66 261.932C557.779 262.354 559.91 262.724 562.05 263.042C564.191 263.359 566.337 263.625 568.488 263.833C570.639 264.047 572.795 264.208 574.956 264.313C577.118 264.417 579.279 264.469 581.441 264.469Z" fill="#EAC28B"/>
</g>
<path d="M225.975 607.545L225.934 592.274L218.454 604.858H215.788L208.329 592.587V607.545H202.809V582.087H207.684L217.204 597.899L226.6 582.087H231.434L231.517 607.545H225.975Z" fill="#EBC38B"/>
<path d="M258.125 607.983C255.469 607.983 253.083 607.415 250.958 606.274C248.844 605.139 247.188 603.566 245.979 601.566C244.781 599.566 244.188 597.316 244.188 594.816C244.188 592.316 244.781 590.066 245.979 588.066C247.188 586.066 248.844 584.498 250.958 583.358C253.083 582.222 255.469 581.649 258.125 581.649C260.76 581.649 263.135 582.222 265.25 583.358C267.359 584.498 269.021 586.066 270.229 588.066C271.448 590.066 272.062 592.316 272.062 594.816C272.062 597.316 271.448 599.566 270.229 601.566C269.021 603.566 267.359 605.139 265.25 606.274C263.135 607.415 260.76 607.983 258.125 607.983ZM258.125 602.962C259.625 602.962 260.979 602.618 262.188 601.92C263.406 601.228 264.359 600.264 265.042 599.024C265.734 597.79 266.083 596.389 266.083 594.816C266.083 593.233 265.734 591.827 265.042 590.587C264.359 589.353 263.406 588.394 262.188 587.712C260.979 587.019 259.625 586.67 258.125 586.67C256.625 586.67 255.26 587.019 254.042 587.712C252.833 588.394 251.88 589.353 251.188 590.587C250.49 591.827 250.146 593.233 250.146 594.816C250.146 596.389 250.49 597.79 251.188 599.024C251.88 600.264 252.833 601.228 254.042 601.92C255.26 602.618 256.625 602.962 258.125 602.962Z" fill="#EBC38B"/>
<path d="M284.736 582.087H296.299C299.059 582.087 301.507 582.618 303.632 583.67C305.757 584.728 307.403 586.212 308.57 588.129C309.747 590.045 310.34 592.274 310.34 594.816C310.34 597.358 309.747 599.587 308.57 601.504C307.403 603.42 305.757 604.91 303.632 605.962C301.507 607.019 299.059 607.545 296.299 607.545H284.736V582.087ZM296.007 602.712C298.559 602.712 300.596 602.004 302.111 600.587C303.622 599.16 304.382 597.233 304.382 594.816C304.382 592.389 303.622 590.462 302.111 589.045C300.596 587.629 298.559 586.92 296.007 586.92H290.632V602.712H296.007Z" fill="#EBC38B"/>
<path d="M353.76 607.983C351.161 607.983 348.812 607.42 346.719 606.295C344.62 605.17 342.969 603.608 341.76 601.608C340.562 599.597 339.969 597.332 339.969 594.816C339.969 592.29 340.562 590.024 341.76 588.024C342.969 586.024 344.62 584.462 346.719 583.337C348.812 582.212 351.177 581.649 353.802 581.649C355.995 581.649 357.979 582.04 359.76 582.816C361.552 583.597 363.052 584.707 364.26 586.149L360.49 589.649C358.766 587.665 356.635 586.67 354.094 586.67C352.51 586.67 351.099 587.019 349.865 587.712C348.625 588.394 347.661 589.353 346.969 590.587C346.271 591.827 345.927 593.233 345.927 594.816C345.927 596.389 346.271 597.79 346.969 599.024C347.661 600.264 348.625 601.228 349.865 601.92C351.099 602.618 352.51 602.962 354.094 602.962C356.635 602.962 358.766 601.957 360.49 599.941L364.26 603.441C363.052 604.915 361.552 606.04 359.76 606.816C357.969 607.592 355.969 607.983 353.76 607.983Z" fill="#EBC38B"/>
<path d="M388.816 607.983C386.16 607.983 383.775 607.415 381.65 606.274C379.535 605.139 377.879 603.566 376.671 601.566C375.473 599.566 374.879 597.316 374.879 594.816C374.879 592.316 375.473 590.066 376.671 588.066C377.879 586.066 379.535 584.498 381.65 583.358C383.775 582.222 386.16 581.649 388.816 581.649C391.452 581.649 393.827 582.222 395.941 583.358C398.051 584.498 399.712 586.066 400.921 588.066C402.139 590.066 402.754 592.316 402.754 594.816C402.754 597.316 402.139 599.566 400.921 601.566C399.712 603.566 398.051 605.139 395.941 606.274C393.827 607.415 391.452 607.983 388.816 607.983ZM388.816 602.962C390.316 602.962 391.671 602.618 392.879 601.92C394.098 601.228 395.051 600.264 395.733 599.024C396.426 597.79 396.775 596.389 396.775 594.816C396.775 593.233 396.426 591.827 395.733 590.587C395.051 589.353 394.098 588.394 392.879 587.712C391.671 587.019 390.316 586.67 388.816 586.67C387.316 586.67 385.952 587.019 384.733 587.712C383.525 588.394 382.572 589.353 381.879 590.587C381.181 591.827 380.837 593.233 380.837 594.816C380.837 596.389 381.181 597.79 381.879 599.024C382.572 600.264 383.525 601.228 384.733 601.92C385.952 602.618 387.316 602.962 388.816 602.962Z" fill="#EBC38B"/>
<path d="M438.596 607.545L438.555 592.274L431.076 604.858H428.409L420.951 592.587V607.545H415.43V582.087H420.305L429.826 597.899L439.221 582.087H444.055L444.138 607.545H438.596Z" fill="#EBC38B"/>
<path d="M481.577 607.545L481.535 592.274L474.056 604.858H471.389L463.931 592.587V607.545H458.41V582.087H463.285L472.806 597.899L482.202 582.087H487.035L487.118 607.545H481.577Z" fill="#EBC38B"/>
<path d="M512.706 607.983C509.065 607.983 506.232 606.978 504.206 604.962C502.174 602.952 501.164 600.077 501.164 596.337V582.087H507.06V596.129C507.06 600.686 508.956 602.962 512.747 602.962C514.581 602.962 515.982 602.415 516.956 601.316C517.924 600.207 518.414 598.478 518.414 596.129V582.087H524.227V596.337C524.227 600.077 523.211 602.952 521.185 604.962C519.169 606.978 516.341 607.983 512.706 607.983Z" fill="#EBC38B"/>
<path d="M561.655 582.087V607.545H556.822L544.113 592.087V607.545H538.301V582.087H543.176L555.822 597.545V582.087H561.655Z" fill="#EBC38B"/>
<path d="M575.938 582.087H581.833V607.545H575.938V582.087Z" fill="#EBC38B"/>
<path d="M601.392 586.879H593.246V582.087H615.434V586.879H607.288V607.545H601.392V586.879Z" fill="#EBC38B"/>
<path d="M639.078 598.524V607.545H633.182V598.441L623.328 582.087H629.578L636.37 593.399L643.182 582.087H648.953L639.078 598.524Z" fill="#EBC38B"/>
<path d="M801.883 353.985C801.883 359.944 806.685 364.574 812.643 364.574C818.596 364.574 823.565 359.944 823.565 353.985C823.565 348.027 818.596 343.058 812.643 343.058C806.685 343.058 801.883 348.027 801.883 353.985Z" fill="#EBC38B"/>
</svg>
